# xmcd
#
# Track frame offsets:
#	150
#	16120
#	30384
#	45608
#	60169
#	73366
#	91230
#	115060
#	128066
#	139385
#	155716
#	173561
#	189144
#	202553
#	221087
#	234490
#	250560
#	265335
#	278420
#	295018
#	309040
#	322297
#
# Disc length: 4467 seconds
#
# Revision: 3
# Processed by: cddbd v1.5.1PL0 Copyright (c) Steve Scherf et al.
# Submitted via: audiograbber 1.83.01
#
DISCID=25117116
DTITLE=1996-07 Country Radio - 1996-07 Country Radio
DYEAR=1996
DGENRE=Country
TTITLE0=Tracy Lawrence - Stars Over Texas
TTITLE1=Sammy Kershaw - Vidalia
TTITLE2=Ty England - Irresistible You
TTITLE3=Jeff Carson - That Last Mile
TTITLE4=Tony Tolliver - Bettin' Forever On You
TTITLE5=Ronna Reeves - Rodeo Man
TTITLE6=Ronna Reeves - Rodeo Man (Buckaroo Mix)
TTITLE7=Joe Dee Messina - You're Not In Kansas Anymore
TTITLE8=Bryan White - So Much For Pretending
TTITLE9=Baker and Myers - A Little Bit Of Honey
TTITLE10=Terri Clark - Suddenly Single
TTITLE11=Brooks and Dunn - I Am That Man
TTITLE12=Tim Mcgraw - She Never Lets It Go To Her Heart
TTITLE13=Dwight Yoakam - Heart Of Stone
TTITLE14=Alabama - The Maker Said Take Her
TTITLE15=Toby Keith - A Woman's Touch
TTITLE16=Michelle Wright - Nobody's Girl
TTITLE17=Hank Williams Jr. - Don Juan D'bubba
TTITLE18=Davis Daniel - I'm Not Listening Anymore
TTITLE19=Mandy Barnett - A Simple I Love You
TTITLE20=Rich Mccready - When Hell Freezes Over
TTITLE21=The Cox Family - Runaway
EXTD=
EXTT0=
EXTT1=
EXTT2=
EXTT3=
EXTT4=
EXTT5=
EXTT6=
EXTT7=
EXTT8=
EXTT9=
EXTT10=
EXTT11=
EXTT12=
EXTT13=
EXTT14=
EXTT15=
EXTT16=
EXTT17=
EXTT18=
EXTT19=
EXTT20=
EXTT21=
PLAYORDER=
